<svg width="52" height="52" viewBox="0 0 52 52" fill="none" xmlns="http://www.w3.org/2000/svg">
<path d="M28.0556 36.9542C27.9833 37.0264 27.9111 37.0986 27.8389 37.2431C27.7667 37.3875 27.6222 37.5319 27.55 37.6764C27.55 37.7486 27.4778 37.7486 27.4778 37.6764C27.4056 37.6042 27.3333 37.6042 27.2611 37.5319C27.0444 37.3875 26.9 37.1708 26.6833 37.0264C26.4667 36.8097 26.25 36.6653 26.0333 36.4486C25.8889 36.3042 25.6722 36.1597 25.5278 36.0153C25.4556 35.9431 25.4556 35.9431 25.3833 36.0153C25.0944 36.3042 24.8056 36.5208 24.4444 36.8097C24.1556 37.0986 23.8667 37.3153 23.5778 37.6042L23.5056 37.6764C23.4333 37.6764 23.4333 37.6764 23.3611 37.6764L23.2889 37.6042C23.1444 37.4597 23.0722 37.2431 22.9278 37.0986C22.9278 37.0264 22.8556 37.0264 22.8556 37.0264V36.9542C22.7111 36.6653 22.4944 36.3764 22.2778 36.0875H22.2056C22.1333 35.8708 21.9889 35.7264 21.9167 35.5097H21.8444H21.7722C21.1222 35.7986 20.5444 36.1597 19.8944 36.4486C19.8222 36.4486 19.8222 36.5208 19.75 36.5208H19.6778C19.4611 36.5931 19.4611 36.5931 19.3889 36.3764C19.2444 35.8708 19.0278 35.2931 18.8833 34.7875C18.8833 34.7153 18.8111 34.6431 18.8111 34.5708C18.8111 34.3542 18.7389 34.2097 18.6667 34.0653C18.6667 33.9931 18.5944 33.9931 18.5944 34.0653C18.3778 34.1375 18.1611 34.1375 17.9444 34.2097C17.5833 34.2819 17.2944 34.3542 16.9333 34.4264C16.7889 34.4986 16.5722 34.4986 16.4278 34.5708C16.3556 34.5708 16.2833 34.5708 16.2111 34.5708C16.1389 34.5708 16.1389 34.5708 16.0667 34.5708C15.9944 34.5708 15.9944 34.5708 15.9944 34.4986C15.9944 34.4264 15.9944 34.3542 15.9944 34.3542C15.9944 34.2097 15.9944 34.1375 15.9944 33.9931C15.9222 33.8486 15.9944 33.6319 15.9222 33.4875C15.9222 33.3431 15.9222 33.1986 15.9222 32.9819C15.9222 32.6931 15.9222 32.3319 15.85 32.0431C15.85 31.8986 15.85 31.8986 15.7056 31.8264C15.2722 31.8264 14.9111 31.8264 14.4778 31.7542H14.4056C13.9722 31.6819 13.6111 31.6819 13.1778 31.6819C13.1778 31.6097 13.1778 31.5375 13.1778 31.5375C13.25 31.2486 13.3222 30.9597 13.3944 30.6708C13.3944 30.5986 13.3944 30.5264 13.3944 30.4542V30.3819C13.4667 30.0931 13.5389 29.8042 13.5389 29.5153C13.5389 29.3708 13.6111 29.2264 13.6111 29.1542C13.6111 29.0819 13.6111 29.0819 13.5389 29.0097C13.4667 29.0097 13.4667 29.0097 13.3944 28.9375C12.9611 28.7931 12.4556 28.6486 12.0222 28.5042C11.7333 28.4319 11.3722 28.2875 11.0833 28.2153C11.0833 28.2153 11.0111 28.1431 11.0833 28.1431C11.0833 28.0708 11.1556 27.9986 11.1556 27.9986C11.3722 27.4931 11.6611 26.9875 11.8778 26.4819C11.8778 26.4097 11.95 26.3375 11.95 26.2653C12.0944 26.1208 12.0944 25.9764 12.1667 25.8319V25.7597C12.0944 25.7597 12.0944 25.6875 12.0222 25.6875C11.4444 25.3264 10.8667 24.8931 10.2889 24.5319C10.2167 24.5319 10.2167 24.4597 10.1444 24.4597C10.1444 24.4597 10.1444 24.4597 10.0722 24.4597C10.0722 24.4597 10 24.4597 10 24.3875V24.3153C10 24.3153 10 24.2431 10.0722 24.2431C10.2167 24.0986 10.3611 23.8819 10.5778 23.7375C10.7944 23.5208 11.0111 23.3042 11.2278 23.0153C11.3722 22.8708 11.5167 22.6542 11.6611 22.5097C11.6611 22.4375 11.7333 22.4375 11.7333 22.3653C11.7333 22.2931 11.7333 22.2931 11.7333 22.2208C11.6611 22.1486 11.6611 22.0764 11.5889 22.0042C11.3722 21.7875 11.2278 21.5708 11.0111 21.4264C10.7944 21.2097 10.65 20.9931 10.5056 20.7764C10.3611 20.6319 10.2167 20.4875 10.1444 20.3431L10.0722 20.2708C10.0722 20.1986 10.0722 20.1986 10.0722 20.1986C10.1444 20.1264 10.2167 20.1264 10.2167 20.1264C10.5778 19.8375 11.0111 19.6208 11.3722 19.3319C11.5889 19.1875 11.8056 19.0431 12.0222 18.8986L12.0944 18.8264C12.1667 18.7542 12.1667 18.7542 12.0944 18.6819C12.0944 18.6097 12.0222 18.6097 12.0222 18.5375C11.8056 18.0319 11.5167 17.5264 11.3 17.0931C11.2278 16.8764 11.0833 16.7319 11.0111 16.5153C11.0111 16.4431 10.9389 16.4431 10.9389 16.3708C10.9389 16.2986 10.9389 16.2986 11.0111 16.2986H11.0833C11.7333 16.0819 12.4556 15.8653 13.1056 15.6486C13.1778 15.6486 13.3222 15.5764 13.3944 15.5764C13.4667 15.5764 13.4667 15.5042 13.4667 15.4319C13.3944 14.9264 13.25 14.4208 13.1778 13.9153C13.1056 13.6264 13.0333 13.2653 12.9611 12.9764V12.9042C12.9611 12.9042 12.9611 12.8319 13.0333 12.8319H13.1056C13.4667 12.8319 13.8278 12.7597 14.2611 12.7597C14.6222 12.7597 14.9111 12.6875 15.2722 12.6875C15.4167 12.6875 15.4889 12.6875 15.6333 12.6875C15.7056 12.6875 15.7056 12.6875 15.7056 12.6153C15.7056 12.3986 15.7778 12.1097 15.7778 11.8931C15.7778 11.5319 15.85 11.1708 15.85 10.7375C15.9222 10.5208 15.85 10.3042 15.9222 10.0875C15.9222 10.0153 15.9944 9.94306 16.0667 10.0153C16.4278 10.0875 16.7889 10.1597 17.15 10.2319C17.5833 10.3042 18.0167 10.4486 18.5222 10.5208C18.5944 10.5208 18.6667 10.5208 18.6667 10.4486C18.8111 10.0153 18.9556 9.58194 19.1 9.14861C19.1722 8.85972 19.3167 8.49861 19.3889 8.20972C19.3889 8.1375 19.3889 8.1375 19.4611 8.06528C19.4611 8.06528 19.5333 7.99306 19.5333 8.06528C19.6056 8.06528 19.6056 8.1375 19.6778 8.1375C20.3278 8.49861 21.05 8.7875 21.7 9.14861C21.8444 9.22083 21.8444 9.22083 21.9889 9.07639C22.4222 8.42639 22.7833 7.84861 23.2167 7.19861C23.2889 7.12639 23.2889 7.05417 23.3611 7.05417H23.4333C23.4333 7.05417 23.5056 7.05417 23.5056 7.12639C23.65 7.27083 23.8667 7.41528 24.0111 7.55972C24.2278 7.77639 24.4444 7.92083 24.6611 8.1375C24.8778 8.35417 25.0944 8.49861 25.3111 8.71528L25.3833 8.7875C25.4556 8.85972 25.4556 8.85972 25.5278 8.7875C25.6722 8.71528 25.7444 8.57083 25.8889 8.49861C26.1056 8.35417 26.25 8.1375 26.4667 7.99306C26.6833 7.77639 26.9 7.55972 27.1889 7.34306C27.2611 7.27083 27.4056 7.12639 27.4778 7.05417C27.55 6.98194 27.55 6.98194 27.6222 7.05417C27.6222 7.05417 27.6222 7.05417 27.6944 7.12639C27.6944 7.19861 27.7667 7.27083 27.7667 7.27083C28.1278 7.84861 28.5611 8.42639 28.9222 9.07639L28.9944 9.14861C28.9944 9.22083 29.0667 9.22083 29.1389 9.14861C29.2833 9.07639 29.4278 9.00417 29.5722 8.93194C29.7889 8.85972 30.0056 8.71528 30.2222 8.64306C30.5833 8.42639 31.0167 8.20972 31.3778 8.06528C31.45 8.06528 31.45 7.99306 31.5222 8.06528C31.5222 8.06528 31.5222 8.1375 31.5944 8.1375C31.5944 8.20972 31.5944 8.28194 31.5944 8.35417C31.8111 9.07639 32.0278 9.79861 32.3167 10.4486C32.3889 10.6653 32.3889 10.6653 32.5333 10.5931C32.9667 10.5208 33.3278 10.4486 33.7611 10.3764C33.7611 10.3764 33.8333 10.3764 33.8333 10.3042C34.05 10.3042 34.2667 10.2319 34.4833 10.1597C34.7 10.1597 34.8444 10.0875 35.0611 10.0875C35.0611 10.3042 35.0611 10.5208 35.1333 10.7375C35.1333 11.0986 35.2056 11.4597 35.2056 11.8208C35.2056 12.1097 35.2778 12.3986 35.2778 12.6875C35.2778 12.6875 35.2778 12.6875 35.2778 12.7597C35.2778 12.7597 35.2778 12.8319 35.35 12.8319C35.4944 12.8319 35.5667 12.8319 35.7111 12.9042C35.9278 12.9042 36.2167 12.9042 36.4333 12.9764C36.7222 12.9764 37.0111 12.9764 37.2278 13.0486C37.4444 13.0486 37.7333 13.0486 37.95 13.1208C37.8778 13.4097 37.8056 13.6986 37.8056 13.9875C37.6611 14.5653 37.5889 15.1431 37.4444 15.7208C37.5167 15.7931 37.5889 15.7931 37.6611 15.7931C38.3833 16.0097 39.1056 16.2986 39.8278 16.5153C40.0444 16.5875 40.0444 16.5875 39.9722 16.8042C39.6833 17.4542 39.3222 18.1042 39.0333 18.6819C39.0333 18.7542 38.9611 18.7542 38.9611 18.8264C38.8889 18.9708 38.8889 18.9708 39.0333 19.1153C39.6833 19.5486 40.2611 19.9097 40.9111 20.3431C40.9833 20.3431 40.9833 20.4153 41.0556 20.4153C41.1278 20.4153 41.1278 20.4875 41.0556 20.5597C41.0556 20.5597 41.0556 20.6319 40.9833 20.6319C40.7667 20.8486 40.6222 21.0653 40.4056 21.2097C40.1167 21.5708 39.8278 21.8597 39.5389 22.2208C39.4667 22.2931 39.3944 22.3653 39.3222 22.4375C39.25 22.5097 39.25 22.5097 39.3222 22.5819L39.3944 22.6542C39.6833 23.0153 40.0444 23.3764 40.3333 23.6653C40.55 23.8819 40.7667 24.1708 40.9833 24.3875C41.0556 24.4597 41.0556 24.4597 40.9833 24.5319C40.7667 24.6764 40.4778 24.8931 40.2611 25.0375C39.8278 25.3264 39.3944 25.6153 38.9611 25.9042C38.9611 25.9042 38.9611 25.9042 38.8889 25.9764C38.8889 25.9764 38.8167 26.0486 38.8889 26.0486C38.8889 26.1208 38.9611 26.1208 38.9611 26.1931C39.3222 26.8431 39.6111 27.5653 39.9722 28.2153C40.0444 28.3597 40.1167 28.3597 39.9 28.5042C39.1778 28.7208 38.5278 28.9375 37.8056 29.2264C37.7333 29.2264 37.7333 29.2264 37.6611 29.2986C37.5167 29.3708 37.5167 29.3708 37.5167 29.5153C37.5167 29.7319 37.5889 29.8764 37.6611 30.0931C37.8056 30.6708 37.8778 31.2486 38.0222 31.8264C38.0222 31.8264 38.0222 31.8986 38.0222 31.9708C38.0222 32.0431 38.0222 32.0431 37.95 32.1153C37.7333 32.1153 37.5167 32.1153 37.3 32.1875C36.9389 32.1875 36.5778 32.1875 36.1444 32.2597C36 32.2597 35.8556 32.2597 35.7111 32.2597C35.6389 32.2597 35.5667 32.2597 35.4944 32.2597C35.35 32.2597 35.35 32.3319 35.35 32.4042C35.35 32.7653 35.35 33.1986 35.2778 33.5597C35.2778 33.6319 35.2778 33.7042 35.2778 33.8486C35.2778 34.1375 35.2778 34.4986 35.2056 34.7875V34.8597C35.2056 34.9319 35.1333 34.9319 35.1333 34.9319H35.0611C34.9167 34.9319 34.7722 34.8597 34.5556 34.8597C33.9778 34.7153 33.4 34.5708 32.8222 34.4986C32.5333 34.4264 32.5333 34.4264 32.4611 34.7153C32.2444 35.4375 32.0278 36.1597 31.7389 36.8097C31.7389 36.8819 31.7389 36.9542 31.6667 37.0264C31.5944 37.0264 31.5222 36.9542 31.5222 36.9542C30.8722 36.5931 30.15 36.3042 29.5 35.9431C29.4278 35.9431 29.3556 35.8708 29.3556 35.8708H29.2833C29.2833 35.8708 29.2833 35.9431 29.2111 35.9431C28.9222 36.3764 28.6333 36.7375 28.4167 37.1708C28.1278 36.8819 28.0556 36.9542 28.0556 36.9542Z" fill="#CE8235"/>
<path d="M22.35 36.0154C22.35 36.0876 22.4223 36.0876 22.35 36.0154C22.5667 36.3043 22.7834 36.5931 22.9278 36.882V36.9543C22.7834 37.1709 22.7112 37.3876 22.5667 37.6043C22.2778 38.0376 22.0612 38.5432 21.7723 38.9765C21.5556 39.4098 21.2667 39.8432 21.05 40.2765C20.8334 40.7098 20.5445 41.1432 20.3278 41.5765C20.0389 42.082 19.75 42.5876 19.4611 43.0932C19.2445 43.4543 19.0278 43.8154 18.8834 44.1043C18.8111 44.1765 18.8111 44.2487 18.7389 44.3209H18.6667C18.5945 44.1043 18.5945 43.9598 18.5223 43.7432C18.3056 42.9487 18.0889 42.082 17.8723 41.2876C17.7278 40.6376 17.5112 39.9876 17.3667 39.3376V39.2654C17.2945 39.1209 17.2945 39.1209 17.15 39.1932C16.5723 39.3376 15.9223 39.5543 15.3445 39.6987C14.2611 39.9876 13.1778 40.2765 12.0945 40.5654V40.4932C12.2389 40.2765 12.3834 40.0598 12.4556 39.8432C12.7445 39.4098 12.9611 38.9765 13.25 38.4709C13.4667 38.1098 13.6834 37.6765 13.9 37.3154C14.1167 36.9543 14.3334 36.5932 14.55 36.232C14.9111 35.582 15.2723 34.932 15.7056 34.282V34.2098C15.7778 34.1376 15.85 34.0654 15.85 33.9209C15.9223 33.7765 15.9945 33.7043 16.0667 33.5598C16.0667 33.7043 16.0667 33.9209 16.1389 34.0654C16.1389 34.1376 16.1389 34.282 16.1389 34.4265C16.1389 34.4987 16.1389 34.5709 16.1389 34.5709C16.1389 34.6431 16.2111 34.6431 16.2111 34.6431C16.2834 34.6431 16.2834 34.6431 16.3556 34.6431C16.4278 34.6431 16.5 34.6431 16.5723 34.6431V34.7154C16.5723 34.8598 16.5723 34.932 16.5723 35.0765C16.5723 35.1487 16.5723 35.1487 16.6445 35.1487C16.7167 35.1487 16.7167 35.1487 16.7889 35.1487C17.2223 35.0765 17.6556 34.932 18.1611 34.8598C18.45 34.7876 18.6667 34.7876 18.9556 34.7154C19.0278 34.7876 19.0278 34.8598 19.0278 34.932C19.1723 35.4376 19.3889 36.0154 19.5334 36.5209C19.6056 36.7376 19.6056 36.7376 19.8223 36.6654H19.8945C19.9667 36.8098 20.0389 37.0265 20.0389 37.1709C20.0389 37.2432 20.1111 37.2431 20.1834 37.2431C20.2556 37.2431 20.2556 37.1709 20.3278 37.1709C20.8334 36.9543 21.2667 36.6654 21.7723 36.4487C21.8445 36.3765 21.9167 36.3765 21.9889 36.3043C22.0611 36.1598 22.2056 36.0876 22.35 36.0154Z" fill="#804A01"/>
<path d="M35.5667 34.3542C35.7111 34.4987 35.7833 34.6431 35.8556 34.7876C36.2167 35.4376 36.5778 36.0876 36.9389 36.6654C37.1556 37.0987 37.4444 37.532 37.6611 37.9654C37.8778 38.3987 38.1667 38.832 38.3833 39.2654C38.6 39.5542 38.7444 39.9154 38.9611 40.2043C38.9611 40.2765 39.0333 40.3487 39.0333 40.3487C39.0333 40.4209 38.9611 40.4209 38.9611 40.3487C38.5278 40.2042 38.0222 40.132 37.5889 39.9876C37.0111 39.8431 36.5056 39.6987 35.9278 39.5542C35.2778 39.4098 34.6278 39.1931 33.9778 39.0487H33.9056C33.8333 39.0487 33.8333 39.0487 33.7611 39.1209C33.6889 39.3376 33.6167 39.5542 33.6167 39.7709C33.3278 40.7098 33.1111 41.7209 32.8222 42.6598C32.6778 43.1654 32.6056 43.5987 32.4611 44.1042C32.4611 44.1765 32.3889 44.2487 32.3889 44.3209C32.3167 44.3209 32.3167 44.2487 32.3167 44.2487C31.8111 43.382 31.3778 42.5876 30.8722 41.7209C30.3667 40.9265 29.9333 40.0598 29.4278 39.2654C29.1389 38.7598 28.85 38.2542 28.5611 37.7487C28.5611 37.6765 28.4889 37.6042 28.4889 37.532C28.4889 37.4598 28.4889 37.4598 28.5611 37.3876C28.85 36.9542 29.1389 36.4487 29.5 36.0154C29.5 35.9431 29.5722 35.9431 29.6444 35.8709C29.7167 35.8709 29.7167 35.8709 29.7167 35.9431C30.2222 36.1598 30.6556 36.4487 31.1611 36.6654C31.3778 36.7376 31.5222 36.8098 31.7389 36.9543C31.8111 37.0265 31.8833 37.0265 31.9556 37.0987C32.0278 37.0987 32.0278 37.0987 32.1 37.0265C32.1 36.9542 32.1 36.9542 32.1722 36.882C32.2444 36.7376 32.3167 36.5209 32.3167 36.3765C32.5333 35.7987 32.6778 35.2931 32.8944 34.7154C32.9667 34.5709 32.9667 34.4987 33.1833 34.5709H33.2556C33.4722 34.6431 33.7611 34.6431 33.9778 34.7154C34.4111 34.7876 34.7722 34.8598 35.2056 34.932C35.35 34.932 35.4222 35.0042 35.5667 35.0042C35.6389 35.0042 35.6389 35.0042 35.6389 34.932C35.4944 34.7876 35.5667 34.5709 35.5667 34.3542Z" fill="#804A01"/>
<path d="M35.5667 34.3543C35.5667 34.5709 35.4945 34.7876 35.4945 35.0043C35.4945 35.0765 35.4222 35.0765 35.4222 35.0765C35.2778 35.0765 35.2056 35.0765 35.0611 35.0043C34.6278 34.932 34.2667 34.8598 33.8334 34.7876C33.6167 34.7154 33.3278 34.7154 33.1111 34.6431H33.0389C32.8945 34.6431 32.8222 34.6431 32.75 34.7876C32.5334 35.3654 32.3889 35.8709 32.1722 36.4487C32.1 36.5931 32.0278 36.8098 32.0278 36.9543C32.0278 37.0265 32.0278 37.0265 31.9556 37.0987C31.9556 37.1709 31.8834 37.1709 31.8111 37.1709C31.7389 37.0987 31.6667 37.0987 31.5945 37.0265C31.45 36.9543 31.2334 36.8098 31.0167 36.7376C30.5111 36.4487 30.0778 36.232 29.5722 36.0154C29.5722 36.0154 29.5 36.0154 29.5 35.9431C29.4278 36.0154 29.4278 36.0154 29.3556 36.0876C29.0667 36.5209 28.7778 37.0265 28.4167 37.4598C28.4167 37.532 28.4167 37.532 28.3445 37.6043C28.2722 37.532 28.2722 37.4598 28.2 37.4598C28.1278 37.3154 28.0556 37.1709 27.9111 37.0265C27.9111 36.9543 27.9834 36.882 27.9834 36.882C28.2722 36.4487 28.4889 36.0876 28.7778 35.6543C28.7778 35.6543 28.7778 35.582 28.85 35.582H28.9222C28.9945 35.582 29.0667 35.6543 29.0667 35.6543C29.7167 36.0154 30.4389 36.3043 31.0889 36.6654C31.1611 36.6654 31.1611 36.7376 31.2334 36.7376C31.3056 36.6654 31.3056 36.5931 31.3056 36.5209C31.5222 35.7987 31.8111 35.0765 32.0278 34.4265C32.1 34.1376 32.1 34.1376 32.3889 34.2098C32.9667 34.3543 33.5445 34.4265 34.1222 34.5709C34.2667 34.5709 34.4111 34.6431 34.6278 34.6431H34.7C34.7722 34.6431 34.7722 34.6431 34.7722 34.5709V34.4987C34.7722 34.2098 34.7722 33.8487 34.8445 33.5598C34.9889 33.7043 34.9889 33.8487 35.1334 33.9931C35.4222 34.0654 35.4945 34.2098 35.5667 34.3543Z" fill="#6C3907"/>
<path d="M37.1556 22.2931C37.1556 22.5098 37.1556 22.7264 37.1556 22.8709C37.1556 23.1598 37.1556 23.4486 37.0834 23.7375C37.0834 23.882 37.0834 23.9542 37.0111 24.0986C36.9389 24.3153 36.9389 24.6042 36.8667 24.8209C36.7945 25.2542 36.65 25.6875 36.5056 26.0486C36.3611 26.4098 36.2167 26.8431 36 27.2042C35.7111 27.782 35.4222 28.3598 34.9889 28.8653C34.8445 29.082 34.6278 29.2986 34.4834 29.5153C34.1945 29.9486 33.8334 30.2375 33.4722 30.5986C33.1834 30.8875 32.8222 31.1764 32.5334 31.3931C32.2445 31.6098 32.0278 31.7542 31.7389 31.9709C31.5222 32.1153 31.2334 32.2598 30.9445 32.4042C30.4389 32.6209 30.0056 32.9098 29.5 33.0542C29.0667 33.1986 28.7056 33.3431 28.2722 33.4153C27.9834 33.4875 27.7667 33.5598 27.4778 33.5598C27.3334 33.5598 27.1889 33.5598 27.0445 33.632C26.8278 33.7042 26.6111 33.632 26.3945 33.7042C26.3222 33.7042 26.25 33.7042 26.25 33.7042C25.7445 33.7042 25.3111 33.7042 24.8056 33.7042C24.7334 33.7042 24.6611 33.7042 24.5889 33.7042C24.5889 33.7042 24.5167 33.7042 24.4445 33.7042C24.0834 33.7042 23.7945 33.632 23.4333 33.5598C22.9278 33.4875 22.4945 33.3431 21.9889 33.1986C21.5556 33.0542 21.1222 32.9098 20.7611 32.6931C20.1834 32.4764 19.6778 32.1875 19.1722 31.8264C18.8111 31.5375 18.3778 31.3209 18.0167 31.032C17.5833 30.6709 17.2222 30.382 16.8611 29.9486C16.5722 29.5875 16.2833 29.2986 15.9945 28.9375C15.7778 28.5764 15.5611 28.2875 15.3445 27.9264C15.1278 27.5653 14.9833 27.2042 14.7667 26.8431C14.55 26.4098 14.4056 25.9042 14.2611 25.4709C14.1167 25.1098 14.0445 24.7486 13.9722 24.3153C13.9 24.0986 13.9 23.882 13.8278 23.6653C13.8278 23.4486 13.7556 23.3042 13.7556 23.0875V23.0153C13.6833 22.6542 13.7556 22.2931 13.6833 21.932C13.6833 21.7875 13.6833 21.6431 13.6833 21.4264C13.6833 21.282 13.6833 21.1375 13.6833 21.0653V20.9931C13.6833 20.632 13.7556 20.3431 13.8278 19.982C13.9 19.332 14.1167 18.682 14.3333 18.032C14.4778 17.7431 14.55 17.382 14.6945 17.0931C14.7667 16.9486 14.8389 16.8042 14.9111 16.6598C15.2722 16.082 15.5611 15.432 15.9945 14.9264C16.2111 14.6375 16.4278 14.3486 16.6445 14.132C16.7889 13.9875 16.9334 13.7709 17.15 13.6264C17.3667 13.4098 17.5833 13.2653 17.8 13.0486C18.2333 12.6875 18.6667 12.3986 19.1722 12.1098C19.3167 12.0375 19.4611 11.9653 19.6056 11.8209C19.8222 11.6764 20.0389 11.6042 20.2556 11.4598C20.8334 11.1709 21.4833 10.9542 22.1334 10.7375C22.5667 10.5931 22.9278 10.5209 23.3611 10.4486C23.5056 10.4486 23.65 10.4486 23.7945 10.3764C24.0111 10.3042 24.2278 10.3764 24.4445 10.3042C24.5167 10.3042 24.5167 10.3042 24.5889 10.3042C25.0222 10.3042 25.5278 10.3042 25.9611 10.3042C26.0334 10.3042 26.1056 10.3042 26.25 10.3042H26.3222C26.5389 10.3042 26.6834 10.3764 26.9 10.3764C27.1167 10.3764 27.2611 10.4486 27.4778 10.4486C27.7667 10.5209 28.0556 10.5931 28.3445 10.6653C28.7778 10.8098 29.2834 10.9542 29.7167 11.0986C30.0778 11.2431 30.3667 11.3875 30.7278 11.532C31.1611 11.7486 31.6667 12.0375 32.1 12.3264C32.2445 12.4709 32.4611 12.6153 32.6056 12.6875C32.75 12.7598 32.8222 12.832 32.8945 12.9764C33.2556 13.2653 33.6167 13.6264 33.9778 13.9875C34.4834 14.4931 34.9167 15.0709 35.2778 15.6486C35.5667 16.1542 35.8556 16.6598 36.0722 17.1653C36.2167 17.5264 36.3611 17.8153 36.5056 18.1764C36.65 18.682 36.7945 19.1875 36.8667 19.6931C36.9389 19.982 36.9389 20.1986 37.0111 20.4875C37.0834 20.7764 37.0834 21.0653 37.0834 21.3542C37.1556 22.0042 37.1556 22.1486 37.1556 22.2931ZM25.6 32.0431C25.8889 32.0431 26.25 32.0431 26.5389 31.9709C26.8278 31.9709 27.0445 31.8986 27.3334 31.8986C27.7667 31.8264 28.2 31.682 28.6334 31.5375C28.85 31.4653 29.0667 31.3931 29.2834 31.3209C29.7167 31.1764 30.15 30.8875 30.5834 30.6709C30.8 30.5264 31.0889 30.382 31.3056 30.1653C31.5945 29.9486 31.8834 29.6598 32.1722 29.4431C32.3167 29.2986 32.4611 29.1542 32.6056 29.0098C32.75 28.8653 32.8945 28.7209 33.0389 28.5042C33.1834 28.2875 33.3278 28.0709 33.4722 27.8542C33.6889 27.4931 33.9056 27.2042 34.1222 26.8431C34.3389 26.4098 34.5556 26.0486 34.7 25.6153C34.7722 25.3986 34.8445 25.182 34.9167 25.0375C35.0611 24.6042 35.1334 24.1709 35.2056 23.7375C35.2056 23.4486 35.2778 23.1598 35.2778 22.8709C35.2778 22.7986 35.2778 22.6542 35.2778 22.582C35.35 22.4375 35.35 22.2209 35.2778 22.0764C35.2778 22.0042 35.2778 22.0042 35.2778 21.932C35.2778 21.7153 35.2778 21.4986 35.2056 21.2098C35.2056 20.9931 35.1334 20.7764 35.1334 20.5598C35.0611 20.1264 34.9167 19.6209 34.7722 19.1875C34.7 18.8986 34.5556 18.6098 34.4111 18.3209C34.3389 18.032 34.1945 17.8153 34.05 17.5986C33.8334 17.2375 33.6167 16.8042 33.3278 16.4431C33.1111 16.082 32.8222 15.7931 32.5334 15.5042C32.3889 15.3598 32.1722 15.1431 32.0278 14.9986C31.8111 14.8542 31.6667 14.6375 31.45 14.4931C31.0167 14.132 30.5111 13.8431 30.0056 13.5542C29.5722 13.3375 29.1389 13.1209 28.7056 12.9764C28.1278 12.7598 27.55 12.6153 26.9 12.5431C26.7556 12.4709 26.6111 12.5431 26.4667 12.4709C26.3222 12.4709 26.1778 12.4709 26.0334 12.4709C25.8167 12.4709 25.6722 12.4709 25.4556 12.4709C25.1667 12.4709 24.8056 12.4709 24.5167 12.5431H24.4445C24.3 12.5431 24.0834 12.5431 23.9389 12.6153C23.7222 12.6875 23.4334 12.6875 23.2167 12.7598C22.7111 12.9042 22.1334 13.0486 21.7 13.2653C21.3389 13.4098 20.9056 13.6264 20.5445 13.8431C20.2556 13.9875 19.9667 14.2042 19.6778 14.4209C19.4611 14.6375 19.1722 14.782 18.9556 15.0709C18.9556 15.0709 18.9556 15.0709 18.8833 15.1431C18.6667 15.2875 18.5222 15.432 18.3778 15.6486C18.1611 15.8653 17.9445 16.082 17.8 16.3709C17.5833 16.5875 17.4389 16.8764 17.2945 17.0931C17.0778 17.4542 16.8611 17.8153 16.7167 18.2486C16.5722 18.5375 16.5 18.8264 16.3556 19.1153C16.2111 19.4764 16.1389 19.8375 16.0667 20.1264C15.9945 20.5598 15.9222 20.9209 15.85 21.3542V21.4264C15.7778 21.5709 15.7778 21.7153 15.7778 21.932C15.7778 22.2931 15.7778 22.582 15.7778 22.9431C15.7778 23.0153 15.7778 23.0875 15.7778 23.0875C15.85 23.3042 15.85 23.4486 15.85 23.6653C15.9222 23.882 15.9222 24.0986 15.9945 24.3153C16.1389 24.8931 16.2833 25.3986 16.5 25.9042C16.6445 26.3375 16.8611 26.6986 17.0778 27.0598C17.15 27.2042 17.2222 27.3486 17.2945 27.4931C17.5111 27.8542 17.7278 28.2153 18.0167 28.5042C18.1611 28.7209 18.3778 28.9375 18.5222 29.082C18.6667 29.2264 18.8111 29.3709 18.9556 29.5153C19.1722 29.6598 19.3167 29.8764 19.5334 30.0209C20.0389 30.382 20.5445 30.7431 21.1222 31.032C21.2667 31.1042 21.4111 31.1764 21.4834 31.1764C21.9167 31.3931 22.4222 31.5375 22.9278 31.682C23.2167 31.7542 23.5778 31.8264 23.8667 31.8986C24.0111 31.8986 24.1556 31.9709 24.3722 31.9709H24.4445C24.5889 32.0431 24.6611 31.9709 24.8056 31.9709C25.0945 32.0431 25.3111 32.0431 25.6 32.0431Z" fill="#804A01"/>
<path d="M22.35 36.0153C22.2055 36.0153 22.1333 36.0875 21.9889 36.1598C21.9166 36.232 21.8444 36.3042 21.7722 36.3042C21.2666 36.5209 20.8333 36.8098 20.3277 37.0264C20.2555 37.0264 20.2555 37.0987 20.1833 37.0987C20.1111 37.0987 20.1111 37.0987 20.0389 37.0264C19.9666 36.882 19.8944 36.6653 19.8944 36.5209C19.8944 36.4487 19.9666 36.4487 20.0389 36.4487C20.6889 36.1598 21.2666 35.7987 21.9166 35.5098H21.9889H22.0611C22.1333 35.6542 22.2777 35.7987 22.35 36.0153Z" fill="#6C3907"/>
<path d="M18.8833 34.643C18.5944 34.7152 18.3778 34.7152 18.0889 34.7874C17.6556 34.8596 17.2222 35.0041 16.7167 35.0763C16.7167 35.0763 16.6444 35.0763 16.5722 35.0763C16.5 35.0763 16.5 35.0763 16.5 35.0041C16.5 34.8596 16.5 34.7874 16.5 34.643V34.5707C16.6444 34.4985 16.7889 34.4985 17.0056 34.4263C17.3667 34.3541 17.6556 34.2818 18.0167 34.2096C18.2333 34.1374 18.45 34.1374 18.6667 34.0652C18.7389 34.0652 18.7389 34.0652 18.7389 34.0652C18.8111 34.3541 18.8833 34.4985 18.8833 34.643Z" fill="#6C3907"/>
<path d="M25.6 32.043C25.3111 32.043 25.0944 32.043 24.8778 32.043C24.7333 32.043 24.6611 32.043 24.5166 32.043H24.4444C24.3 32.043 24.1555 32.043 23.9389 31.9707C23.65 31.8985 23.2889 31.8263 23 31.7541C22.4944 31.6096 22.0611 31.4652 21.5555 31.2485C21.4111 31.1763 21.2666 31.1041 21.1944 31.1041C20.6166 30.8152 20.1111 30.5263 19.6055 30.093C19.3889 29.9485 19.1722 29.7319 19.0278 29.5874C18.8833 29.443 18.7389 29.2985 18.5944 29.1541C18.3778 28.9374 18.2333 28.7207 18.0889 28.5763C17.8 28.2874 17.5833 27.9263 17.3666 27.5652C17.2944 27.4207 17.2222 27.2763 17.15 27.1319C16.9333 26.7707 16.7166 26.3374 16.5722 25.9763C16.3555 25.4707 16.2111 24.893 16.0666 24.3874C15.9944 24.1707 15.9944 23.9541 15.9222 23.7374C15.9222 23.5207 15.9222 23.3763 15.85 23.1596C15.85 23.0874 15.85 23.0152 15.85 23.0152C15.85 22.6541 15.85 22.3652 15.85 22.0041C15.85 21.8596 15.85 21.7152 15.9222 21.4985V21.4263C15.9222 20.993 15.9944 20.5596 16.1389 20.1985C16.2111 19.8374 16.2833 19.4763 16.4278 19.1874C16.5 18.8985 16.6444 18.6096 16.7889 18.3207C17.0055 17.9596 17.15 17.5263 17.3666 17.1652C17.5111 16.9485 17.7278 16.6596 17.8722 16.443C18.0889 16.2263 18.2333 16.0096 18.45 15.7207C18.5944 15.5763 18.7389 15.3596 18.9555 15.2152C18.9555 15.2152 18.9555 15.2152 19.0278 15.143C19.2444 14.9263 19.5333 14.7096 19.75 14.493C20.0389 14.2763 20.3278 14.1319 20.6166 13.9152C20.9778 13.6985 21.3389 13.4819 21.7722 13.3374C22.2778 13.1207 22.7833 12.9763 23.2889 12.8319C23.5055 12.7596 23.7944 12.6874 24.0111 12.6874C24.1555 12.6874 24.3722 12.6152 24.5166 12.6152H24.5889C24.8778 12.543 25.2389 12.6152 25.5278 12.543C25.7444 12.543 25.8889 12.543 26.1055 12.543C26.25 12.543 26.3944 12.543 26.5389 12.543C26.6833 12.543 26.8278 12.543 26.9722 12.6152C27.55 12.6874 28.2 12.8319 28.7778 13.0485C29.2111 13.193 29.6444 13.4096 30.0778 13.6263C30.5833 13.9152 31.0889 14.2041 31.5222 14.5652C31.7389 14.7096 31.9555 14.9263 32.1 15.0707C32.2444 15.2152 32.4611 15.3596 32.6055 15.5763C32.8944 15.8652 33.1833 16.2263 33.4 16.5152C33.6889 16.8763 33.9055 17.2374 34.1222 17.6707C34.2666 17.8874 34.3389 18.1763 34.4833 18.393C34.6278 18.6819 34.7 18.9707 34.8444 19.2596C34.9889 19.693 35.1333 20.1263 35.2055 20.6319C35.2055 20.8485 35.2778 21.0652 35.2778 21.2819C35.35 21.4985 35.2778 21.7874 35.35 22.0041C35.35 22.0763 35.35 22.0763 35.35 22.1485C35.4222 22.293 35.4222 22.5096 35.35 22.6541C35.35 22.7263 35.35 22.8707 35.35 22.943C35.35 23.2319 35.2778 23.5207 35.2778 23.8096C35.2055 24.243 35.1333 24.6763 34.9889 25.1096C34.9166 25.3263 34.8444 25.543 34.7722 25.6874C34.6278 26.1207 34.4111 26.5541 34.1944 26.9152C33.9778 27.2763 33.8333 27.6374 33.5444 27.9263C33.4 28.143 33.2555 28.3596 33.1111 28.5763C32.9666 28.7207 32.8222 28.8652 32.6778 29.0819C32.5333 29.2263 32.3889 29.3707 32.2444 29.5152C31.9555 29.8041 31.6666 30.0207 31.3778 30.2374C31.1611 30.3819 30.8722 30.5985 30.6555 30.743C30.2222 30.9596 29.7889 31.2485 29.3555 31.393C29.1389 31.4652 28.9222 31.5374 28.7055 31.6096C28.2722 31.7541 27.8389 31.8985 27.4055 31.9707C27.1889 32.043 26.9 32.1152 26.6111 32.043C26.25 32.043 25.8889 31.9707 25.6 32.043ZM20.4722 29.0819C20.5444 29.0819 20.6166 29.0096 20.6889 29.0096C21.1944 28.7207 21.7 28.5041 22.2055 28.2152C22.4944 28.0707 22.7833 27.9263 23.0722 27.7819C23.5778 27.493 24.0833 27.2763 24.5889 26.9874C24.6611 26.9874 24.7333 26.9152 24.7333 26.9152C24.95 26.7707 25.2389 26.6985 25.4555 26.5541C25.5278 26.5541 25.5278 26.5541 25.6 26.5541C25.6722 26.6263 25.7444 26.6263 25.8166 26.6985C26.3944 26.9874 26.9722 27.2763 27.55 27.5652C27.8389 27.7096 28.2 27.8541 28.4889 28.0707C28.9222 28.2874 29.3555 28.5041 29.7889 28.793C29.8611 28.8652 29.9333 28.8652 30.0778 28.9374C30.2222 29.0096 30.3666 29.0819 30.5111 29.1541H30.5833V29.0819C30.5111 28.793 30.4389 28.4319 30.4389 28.143C30.3666 27.7819 30.2944 27.3485 30.2222 26.9874C30.15 26.6985 30.0778 26.3374 30.0778 26.0485C30.0055 25.7596 30.0055 25.4707 29.9333 25.1819C29.8611 24.9652 29.8611 24.7485 29.7889 24.5319C29.7166 24.3152 29.7166 24.0985 29.6444 23.8819C29.5722 23.6652 29.6444 23.593 29.7889 23.4485C30.2944 22.943 30.8 22.4374 31.3778 21.9319C31.9555 21.3541 32.5333 20.7763 33.1833 20.1985C33.3278 20.0541 33.4722 19.9096 33.5444 19.8374C33.6166 19.7652 33.6166 19.7652 33.6166 19.693C33.6166 19.693 33.6889 19.6207 33.6166 19.6207H33.5444C33.4 19.6207 33.1833 19.5485 33.0389 19.5485C32.8944 19.5485 32.75 19.4763 32.6055 19.4763C32.3166 19.4763 32.1 19.4041 31.8111 19.4041C31.5222 19.3319 31.2333 19.3319 30.9444 19.2596C30.8 19.2596 30.7278 19.2596 30.5833 19.1874C30.4389 19.1874 30.2944 19.1152 30.15 19.1152C30.0055 19.1152 29.8611 19.1152 29.7166 19.043C29.4278 18.9707 29.2111 18.9707 28.9222 18.8985C28.7055 18.8985 28.4166 18.8263 28.2 18.8263C28.0555 18.8263 27.9833 18.7541 27.9111 18.6096C27.7666 18.3207 27.6944 18.1041 27.55 17.8152C26.9 16.5152 26.25 15.2152 25.6 13.9152C25.6 13.843 25.5278 13.843 25.5278 13.7707C25.5278 13.6985 25.4555 13.6985 25.4555 13.7707C25.4555 13.7707 25.4555 13.843 25.3833 13.843C25.0222 14.6374 24.5889 15.4319 24.1555 16.2985C23.7944 17.093 23.3611 17.8874 23 18.6096C22.9278 18.7541 22.8555 18.7541 22.7111 18.8263C22.5666 18.8263 22.4222 18.8263 22.2778 18.8985C21.9889 18.9707 21.7722 18.9707 21.4833 19.043C21.3389 18.9707 21.05 18.9707 20.8333 18.9707C20.6889 18.9707 20.5444 18.9707 20.4722 19.043C20.2555 19.1152 19.9666 19.1152 19.75 19.1874C19.6055 19.1874 19.4611 19.1874 19.3166 19.2596C19.1722 19.2596 19.0278 19.3319 18.8833 19.3319C18.5944 19.3319 18.3778 19.4041 18.0889 19.4041C17.8722 19.4041 17.7278 19.4763 17.5111 19.4763C17.5111 19.4763 17.5111 19.4763 17.4389 19.4763C17.4389 19.4763 17.4389 19.4763 17.4389 19.5485L17.5111 19.6207C17.5833 19.693 17.7278 19.7652 17.8 19.9096C18.5944 20.7041 19.3889 21.4985 20.1833 22.2207C20.4722 22.5096 20.7611 22.7985 21.05 23.0152C21.1222 23.0874 21.1222 23.0874 21.1944 23.1596C21.2666 23.2319 21.3389 23.3041 21.4833 23.3763C21.5555 23.4485 21.5555 23.4485 21.4833 23.5207C21.4111 23.7374 21.4111 23.9541 21.3389 24.243C21.2666 24.4596 21.2666 24.6763 21.1944 24.893C21.1944 25.1096 21.1222 25.2541 21.1222 25.4707C21.1222 25.6874 21.05 25.9041 21.05 26.1207C20.9778 26.4096 20.9055 26.6985 20.9055 26.9874C20.8333 27.2763 20.8333 27.6374 20.7611 27.9263C20.6166 28.2874 20.5444 28.6485 20.4722 29.0819Z" fill="#CE8235"/>
<path d="M20.4723 29.082C20.5445 28.7209 20.6167 28.2875 20.6889 27.9264C20.7611 27.6375 20.7611 27.2764 20.8334 26.9875C20.9056 26.6987 20.9778 26.4098 20.9778 26.1209C21.05 25.9042 21.05 25.6875 21.05 25.4709C21.05 25.2542 21.1223 25.1098 21.1223 24.8931C21.1945 24.6764 21.1945 24.4598 21.2667 24.2431C21.3389 24.0264 21.3389 23.8098 21.4111 23.5209C21.4111 23.4487 21.4111 23.4487 21.4111 23.3764C21.3389 23.3042 21.2667 23.232 21.1223 23.1598C21.05 23.1598 21.05 23.0875 20.9778 23.0153C20.6889 22.7264 20.4 22.4375 20.1111 22.2209C19.3167 21.4264 18.5223 20.7042 17.7278 19.9098C17.6556 19.8375 17.5111 19.7653 17.4389 19.6209L17.3667 19.5487V19.4764C17.3667 19.4764 17.3667 19.4764 17.4389 19.4764C17.6556 19.4764 17.8 19.4042 18.0167 19.4042C18.3056 19.332 18.5223 19.332 18.8111 19.332C18.9556 19.332 19.1 19.2598 19.2445 19.2598C19.3889 19.2598 19.5334 19.2598 19.6778 19.1875C19.8945 19.1875 20.1834 19.1153 20.4 19.0431C20.5445 19.0431 20.6889 19.0431 20.7611 18.9709C20.9778 18.8987 21.2667 18.8987 21.5556 18.8987C21.8445 18.8264 22.0611 18.8264 22.35 18.7542C22.4945 18.7542 22.6389 18.682 22.7834 18.682C22.9278 18.682 23 18.6098 23.0723 18.4653C23.4334 17.6709 23.8667 16.9487 24.2278 16.1542C24.5889 15.3598 25.0223 14.5653 25.4556 13.6987C25.4556 13.6987 25.4556 13.6264 25.5278 13.6264C25.5278 13.5542 25.6 13.5542 25.6 13.6264C25.6 13.6987 25.6723 13.6987 25.6723 13.7709C26.3223 15.0709 26.9723 16.3709 27.6223 17.6709C27.7667 17.9598 27.9111 18.1764 27.9834 18.4653C28.0556 18.6098 28.1278 18.682 28.2723 18.682C28.4889 18.682 28.7778 18.7542 28.9945 18.7542C29.2834 18.8264 29.5 18.8264 29.7889 18.8987C29.9334 18.8987 30.0778 18.8987 30.2223 18.9709C30.3667 18.9709 30.5111 19.0431 30.6556 19.0431C30.8 19.0431 30.8723 19.0431 31.0167 19.1153C31.3056 19.1875 31.5945 19.1875 31.8834 19.2598C32.1723 19.332 32.3889 19.332 32.6778 19.332C32.8223 19.332 32.9667 19.4042 33.1111 19.4042C33.2556 19.4042 33.4723 19.4764 33.6167 19.4764H33.6889V19.5487C33.6889 19.6209 33.6167 19.6209 33.6167 19.6931C33.4723 19.8375 33.3278 19.982 33.2556 20.0542C32.6056 20.632 32.1 21.2098 31.45 21.7875C30.9445 22.2931 30.4389 22.7987 29.8611 23.3042C29.7167 23.4487 29.7167 23.5931 29.7167 23.7375C29.7889 23.9542 29.7889 24.1709 29.8611 24.3875C29.9334 24.6042 29.9334 24.8209 30.0056 25.0375C30.0778 25.3264 30.0778 25.6153 30.15 25.9042C30.2223 26.1931 30.2945 26.5542 30.2945 26.8431C30.3667 27.2042 30.4389 27.6375 30.5111 27.9987C30.5834 28.2875 30.6556 28.6487 30.6556 28.9375V29.0098H30.5834C30.4389 28.9375 30.2945 28.8653 30.15 28.7931C30.0778 28.7209 30.0056 28.7209 29.8611 28.6487C29.4278 28.432 28.9945 28.2153 28.5611 27.9264C28.2723 27.782 27.9111 27.6375 27.6223 27.4209C27.0445 27.132 26.4667 26.8431 25.8889 26.5542C25.8167 26.482 25.7445 26.482 25.6723 26.4098C25.6 26.4098 25.6 26.4098 25.5278 26.4098C25.3111 26.5542 25.0223 26.6264 24.8056 26.7709C24.7334 26.7709 24.6611 26.8431 24.6611 26.8431C24.1556 27.132 23.65 27.3487 23.1445 27.6375C22.8556 27.782 22.5667 27.9264 22.2778 28.0709C21.7723 28.3598 21.2667 28.5764 20.7611 28.8653C20.6167 29.0098 20.5445 29.082 20.4723 29.082Z" fill="#804A01"/>
</svg>
