<svg width="52" height="52" viewBox="0 0 52 52" fill="none" xmlns="http://www.w3.org/2000/svg">
<path d="M28.0556 36.862C27.9833 36.934 27.9111 37.006 27.8389 37.15C27.7667 37.294 27.6222 37.438 27.55 37.582C27.55 37.654 27.4778 37.654 27.4778 37.582C27.4056 37.51 27.3333 37.51 27.2611 37.438C27.0444 37.294 26.9 37.078 26.6833 36.934C26.4667 36.718 26.25 36.574 26.0333 36.358C25.8889 36.214 25.6722 36.07 25.5278 35.926C25.4556 35.854 25.4556 35.854 25.3833 35.926C25.0944 36.214 24.8056 36.43 24.4444 36.718C24.1556 37.006 23.8667 37.222 23.5778 37.51L23.5056 37.582C23.4333 37.582 23.4333 37.582 23.3611 37.582L23.2889 37.51C23.1444 37.366 23.0722 37.15 22.9278 37.006C22.9278 36.934 22.8556 36.934 22.8556 36.934V36.862C22.7111 36.574 22.4944 36.286 22.2778 35.998H22.2056C22.1333 35.782 21.9889 35.638 21.9167 35.422H21.8444H21.7722C21.1222 35.71 20.5444 36.07 19.8944 36.358C19.8222 36.358 19.8222 36.43 19.75 36.43H19.6778C19.4611 36.502 19.4611 36.502 19.3889 36.286C19.2444 35.782 19.0278 35.206 18.8833 34.702C18.8833 34.63 18.8111 34.558 18.8111 34.486C18.8111 34.27 18.7389 34.126 18.6667 33.982C18.6667 33.91 18.5944 33.91 18.5944 33.982C18.3778 34.054 18.1611 34.054 17.9444 34.126C17.5833 34.198 17.2944 34.27 16.9333 34.342C16.7889 34.414 16.5722 34.414 16.4278 34.486C16.3556 34.486 16.2833 34.486 16.2111 34.486C16.1389 34.486 16.1389 34.486 16.0667 34.486C15.9944 34.486 15.9944 34.486 15.9944 34.414C15.9944 34.342 15.9944 34.27 15.9944 34.27C15.9944 34.126 15.9944 34.054 15.9944 33.91C15.9222 33.766 15.9944 33.55 15.9222 33.406C15.9222 33.262 15.9222 33.118 15.9222 32.902C15.9222 32.614 15.9222 32.254 15.85 31.966C15.85 31.822 15.85 31.822 15.7056 31.75C15.2722 31.75 14.9111 31.75 14.4778 31.678H14.4056C13.9722 31.606 13.6111 31.606 13.1778 31.606C13.1778 31.534 13.1778 31.462 13.1778 31.462C13.25 31.174 13.3222 30.886 13.3944 30.598C13.3944 30.526 13.3944 30.454 13.3944 30.382V30.31C13.4667 30.022 13.5389 29.734 13.5389 29.446C13.5389 29.302 13.6111 29.158 13.6111 29.086C13.6111 29.014 13.6111 29.014 13.5389 28.942C13.4667 28.942 13.4667 28.942 13.3944 28.87C12.9611 28.726 12.4556 28.582 12.0222 28.438C11.7333 28.366 11.3722 28.222 11.0833 28.15C11.0833 28.15 11.0111 28.078 11.0833 28.078C11.0833 28.006 11.1556 27.934 11.1556 27.934C11.3722 27.43 11.6611 26.926 11.8778 26.422C11.8778 26.35 11.95 26.278 11.95 26.206C12.0944 26.062 12.0944 25.918 12.1667 25.774V25.702C12.0944 25.702 12.0944 25.63 12.0222 25.63C11.4444 25.27 10.8667 24.838 10.2889 24.478C10.2167 24.478 10.2167 24.406 10.1444 24.406C10.1444 24.406 10.1444 24.406 10.0722 24.406C10.0722 24.406 10 24.406 10 24.334V24.262C10 24.262 10 24.19 10.0722 24.19C10.2167 24.046 10.3611 23.83 10.5778 23.686C10.7944 23.47 11.0111 23.254 11.2278 22.966C11.3722 22.822 11.5167 22.606 11.6611 22.462C11.6611 22.39 11.7333 22.39 11.7333 22.318C11.7333 22.246 11.7333 22.246 11.7333 22.174C11.6611 22.102 11.6611 22.03 11.5889 21.958C11.3722 21.742 11.2278 21.526 11.0111 21.382C10.7944 21.166 10.65 20.95 10.5056 20.734C10.3611 20.59 10.2167 20.446 10.1444 20.302L10.0722 20.23C10.0722 20.158 10.0722 20.158 10.0722 20.158C10.1444 20.086 10.2167 20.086 10.2167 20.086C10.5778 19.798 11.0111 19.582 11.3722 19.294C11.5889 19.15 11.8056 19.006 12.0222 18.862L12.0944 18.79C12.1667 18.718 12.1667 18.718 12.0944 18.646C12.0944 18.574 12.0222 18.574 12.0222 18.502C11.8056 17.998 11.5167 17.494 11.3 17.062C11.2278 16.846 11.0833 16.702 11.0111 16.486C11.0111 16.414 10.9389 16.414 10.9389 16.342C10.9389 16.27 10.9389 16.27 11.0111 16.27H11.0833C11.7333 16.054 12.4556 15.838 13.1056 15.622C13.1778 15.622 13.3222 15.55 13.3944 15.55C13.4667 15.55 13.4667 15.478 13.4667 15.406C13.3944 14.902 13.25 14.398 13.1778 13.894C13.1056 13.606 13.0333 13.246 12.9611 12.958V12.886C12.9611 12.886 12.9611 12.814 13.0333 12.814H13.1056C13.4667 12.814 13.8278 12.742 14.2611 12.742C14.6222 12.742 14.9111 12.67 15.2722 12.67C15.4167 12.67 15.4889 12.67 15.6333 12.67C15.7056 12.67 15.7056 12.67 15.7056 12.598C15.7056 12.382 15.7778 12.094 15.7778 11.878C15.7778 11.518 15.85 11.158 15.85 10.726C15.9222 10.51 15.85 10.294 15.9222 10.078C15.9222 10.006 15.9944 9.934 16.0667 10.006C16.4278 10.078 16.7889 10.15 17.15 10.222C17.5833 10.294 18.0167 10.438 18.5222 10.51C18.5944 10.51 18.6667 10.51 18.6667 10.438C18.8111 10.006 18.9556 9.574 19.1 9.142C19.1722 8.854 19.3167 8.494 19.3889 8.206C19.3889 8.134 19.3889 8.134 19.4611 8.062C19.4611 8.062 19.5333 7.99 19.5333 8.062C19.6056 8.062 19.6056 8.134 19.6778 8.134C20.3278 8.494 21.05 8.782 21.7 9.142C21.8444 9.214 21.8444 9.214 21.9889 9.07C22.4222 8.422 22.7833 7.846 23.2167 7.198C23.2889 7.126 23.2889 7.054 23.3611 7.054H23.4333C23.4333 7.054 23.5056 7.054 23.5056 7.126C23.65 7.27 23.8667 7.414 24.0111 7.558C24.2278 7.774 24.4444 7.918 24.6611 8.134C24.8778 8.35 25.0944 8.494 25.3111 8.71L25.3833 8.782C25.4556 8.854 25.4556 8.854 25.5278 8.782C25.6722 8.71 25.7444 8.566 25.8889 8.494C26.1056 8.35 26.25 8.134 26.4667 7.99C26.6833 7.774 26.9 7.558 27.1889 7.342C27.2611 7.27 27.4056 7.126 27.4778 7.054C27.55 6.982 27.55 6.982 27.6222 7.054C27.6222 7.054 27.6222 7.054 27.6944 7.126C27.6944 7.198 27.7667 7.27 27.7667 7.27C28.1278 7.846 28.5611 8.422 28.9222 9.07L28.9944 9.142C28.9944 9.214 29.0667 9.214 29.1389 9.142C29.2833 9.07 29.4278 8.998 29.5722 8.926C29.7889 8.854 30.0056 8.71 30.2222 8.638C30.5833 8.422 31.0167 8.206 31.3778 8.062C31.45 8.062 31.45 7.99 31.5222 8.062C31.5222 8.062 31.5222 8.134 31.5944 8.134C31.5944 8.206 31.5944 8.278 31.5944 8.35C31.8111 9.07 32.0278 9.79 32.3167 10.438C32.3889 10.654 32.3889 10.654 32.5333 10.582C32.9667 10.51 33.3278 10.438 33.7611 10.366C33.7611 10.366 33.8333 10.366 33.8333 10.294C34.05 10.294 34.2667 10.222 34.4833 10.15C34.7 10.15 34.8444 10.078 35.0611 10.078C35.0611 10.294 35.0611 10.51 35.1333 10.726C35.1333 11.086 35.2056 11.446 35.2056 11.806C35.2056 12.094 35.2778 12.382 35.2778 12.67C35.2778 12.67 35.2778 12.67 35.2778 12.742C35.2778 12.742 35.2778 12.814 35.35 12.814C35.4944 12.814 35.5667 12.814 35.7111 12.886C35.9278 12.886 36.2167 12.886 36.4333 12.958C36.7222 12.958 37.0111 12.958 37.2278 13.03C37.4444 13.03 37.7333 13.03 37.95 13.102C37.8778 13.39 37.8056 13.678 37.8056 13.966C37.6611 14.542 37.5889 15.118 37.4444 15.694C37.5167 15.766 37.5889 15.766 37.6611 15.766C38.3833 15.982 39.1056 16.27 39.8278 16.486C40.0444 16.558 40.0444 16.558 39.9722 16.774C39.6833 17.422 39.3222 18.07 39.0333 18.646C39.0333 18.718 38.9611 18.718 38.9611 18.79C38.8889 18.934 38.8889 18.934 39.0333 19.078C39.6833 19.51 40.2611 19.87 40.9111 20.302C40.9833 20.302 40.9833 20.374 41.0556 20.374C41.1278 20.374 41.1278 20.446 41.0556 20.518C41.0556 20.518 41.0556 20.59 40.9833 20.59C40.7667 20.806 40.6222 21.022 40.4056 21.166C40.1167 21.526 39.8278 21.814 39.5389 22.174C39.4667 22.246 39.3944 22.318 39.3222 22.39C39.25 22.462 39.25 22.462 39.3222 22.534L39.3944 22.606C39.6833 22.966 40.0444 23.326 40.3333 23.614C40.55 23.83 40.7667 24.118 40.9833 24.334C41.0556 24.406 41.0556 24.406 40.9833 24.478C40.7667 24.622 40.4778 24.838 40.2611 24.982C39.8278 25.27 39.3944 25.558 38.9611 25.846C38.9611 25.846 38.9611 25.846 38.8889 25.918C38.8889 25.918 38.8167 25.99 38.8889 25.99C38.8889 26.062 38.9611 26.062 38.9611 26.134C39.3222 26.782 39.6111 27.502 39.9722 28.15C40.0444 28.294 40.1167 28.294 39.9 28.438C39.1778 28.654 38.5278 28.87 37.8056 29.158C37.7333 29.158 37.7333 29.158 37.6611 29.23C37.5167 29.302 37.5167 29.302 37.5167 29.446C37.5167 29.662 37.5889 29.806 37.6611 30.022C37.8056 30.598 37.8778 31.174 38.0222 31.75C38.0222 31.75 38.0222 31.822 38.0222 31.894C38.0222 31.966 38.0222 31.966 37.95 32.038C37.7333 32.038 37.5167 32.038 37.3 32.11C36.9389 32.11 36.5778 32.11 36.1444 32.182C36 32.182 35.8556 32.182 35.7111 32.182C35.6389 32.182 35.5667 32.182 35.4944 32.182C35.35 32.182 35.35 32.254 35.35 32.326C35.35 32.686 35.35 33.118 35.2778 33.478C35.2778 33.55 35.2778 33.622 35.2778 33.766C35.2778 34.054 35.2778 34.414 35.2056 34.702V34.774C35.2056 34.846 35.1333 34.846 35.1333 34.846H35.0611C34.9167 34.846 34.7722 34.774 34.5556 34.774C33.9778 34.63 33.4 34.486 32.8222 34.414C32.5333 34.342 32.5333 34.342 32.4611 34.63C32.2444 35.35 32.0278 36.07 31.7389 36.718C31.7389 36.79 31.7389 36.862 31.6667 36.934C31.5944 36.934 31.5222 36.862 31.5222 36.862C30.8722 36.502 30.15 36.214 29.5 35.854C29.4278 35.854 29.3556 35.782 29.3556 35.782H29.2833C29.2833 35.782 29.2833 35.854 29.2111 35.854C28.9222 36.286 28.6333 36.646 28.4167 37.078C28.1278 36.79 28.0556 36.862 28.0556 36.862Z" fill="#FFED33"/>
<path d="M22.35 35.926C22.35 35.998 22.4223 35.998 22.35 35.926C22.5667 36.214 22.7834 36.502 22.9278 36.79V36.862C22.7834 37.078 22.7111 37.294 22.5667 37.51C22.2778 37.942 22.0611 38.446 21.7723 38.878C21.5556 39.31 21.2667 39.742 21.05 40.174C20.8334 40.606 20.5445 41.038 20.3278 41.47C20.0389 41.974 19.75 42.478 19.4611 42.982C19.2445 43.342 19.0278 43.702 18.8834 43.99C18.8111 44.062 18.8111 44.134 18.7389 44.206H18.6667C18.5945 43.99 18.5945 43.846 18.5223 43.63C18.3056 42.838 18.0889 41.974 17.8723 41.182C17.7278 40.534 17.5111 39.886 17.3667 39.238V39.166C17.2945 39.022 17.2945 39.022 17.15 39.094C16.5723 39.238 15.9223 39.454 15.3445 39.598C14.2611 39.886 13.1778 40.174 12.0945 40.462V40.39C12.2389 40.174 12.3834 39.958 12.4556 39.742C12.7445 39.31 12.9611 38.878 13.25 38.374C13.4667 38.014 13.6834 37.582 13.9 37.222C14.1167 36.862 14.3334 36.502 14.55 36.142C14.9111 35.494 15.2723 34.846 15.7056 34.198V34.126C15.7778 34.054 15.85 33.982 15.85 33.838C15.9223 33.694 15.9945 33.622 16.0667 33.478C16.0667 33.622 16.0667 33.838 16.1389 33.982C16.1389 34.054 16.1389 34.198 16.1389 34.342C16.1389 34.414 16.1389 34.486 16.1389 34.486C16.1389 34.558 16.2111 34.558 16.2111 34.558C16.2834 34.558 16.2834 34.558 16.3556 34.558C16.4278 34.558 16.5 34.558 16.5723 34.558V34.63C16.5723 34.774 16.5723 34.846 16.5723 34.99C16.5723 35.062 16.5723 35.062 16.6445 35.062C16.7167 35.062 16.7167 35.062 16.7889 35.062C17.2223 34.99 17.6556 34.846 18.1611 34.774C18.45 34.702 18.6667 34.702 18.9556 34.63C19.0278 34.702 19.0278 34.774 19.0278 34.846C19.1723 35.35 19.3889 35.926 19.5334 36.43C19.6056 36.646 19.6056 36.646 19.8223 36.574H19.8945C19.9667 36.718 20.0389 36.934 20.0389 37.078C20.0389 37.15 20.1111 37.15 20.1834 37.15C20.2556 37.15 20.2556 37.078 20.3278 37.078C20.8334 36.862 21.2667 36.574 21.7723 36.358C21.8445 36.286 21.9167 36.286 21.9889 36.214C22.0611 36.07 22.2056 35.998 22.35 35.926Z" fill="#FAC900"/>
<path d="M35.5668 34.27C35.7112 34.414 35.7835 34.558 35.8557 34.702C36.2168 35.35 36.5779 35.998 36.939 36.574C37.1557 37.006 37.4446 37.438 37.6612 37.87C37.8779 38.302 38.1668 38.734 38.3835 39.166C38.6001 39.454 38.7446 39.814 38.9612 40.102C38.9612 40.174 39.0335 40.246 39.0335 40.246C39.0335 40.318 38.9612 40.318 38.9612 40.246C38.5279 40.102 38.0223 40.03 37.589 39.886C37.0112 39.742 36.5057 39.598 35.9279 39.454C35.2779 39.31 34.6279 39.094 33.9779 38.95H33.9057C33.8335 38.95 33.8335 38.95 33.7612 39.022C33.689 39.238 33.6168 39.454 33.6168 39.67C33.3279 40.606 33.1112 41.614 32.8223 42.55C32.6779 43.054 32.6057 43.486 32.4612 43.99C32.4612 44.062 32.389 44.134 32.389 44.206C32.3168 44.206 32.3168 44.134 32.3168 44.134C31.8112 43.27 31.3779 42.478 30.8723 41.614C30.3668 40.822 29.9335 39.958 29.4279 39.166C29.139 38.662 28.8501 38.158 28.5612 37.654C28.5612 37.582 28.489 37.51 28.489 37.438C28.489 37.366 28.489 37.366 28.5612 37.294C28.8501 36.862 29.139 36.358 29.5001 35.926C29.5001 35.854 29.5723 35.854 29.6446 35.782C29.7168 35.782 29.7168 35.782 29.7168 35.854C30.2223 36.07 30.6557 36.358 31.1612 36.574C31.3779 36.646 31.5223 36.718 31.739 36.862C31.8112 36.934 31.8835 36.934 31.9557 37.006C32.0279 37.006 32.0279 37.006 32.1001 36.934C32.1001 36.862 32.1001 36.862 32.1723 36.79C32.2446 36.646 32.3168 36.43 32.3168 36.286C32.5335 35.71 32.6779 35.206 32.8946 34.63C32.9668 34.486 32.9668 34.414 33.1835 34.486H33.2557C33.4723 34.558 33.7612 34.558 33.9779 34.63C34.4112 34.702 34.7723 34.774 35.2057 34.846C35.3501 34.846 35.4223 34.918 35.5668 34.918C35.639 34.918 35.639 34.918 35.639 34.846C35.4946 34.702 35.5668 34.486 35.5668 34.27Z" fill="#FAC900"/>
<path d="M35.5667 34.27C35.5667 34.486 35.4945 34.702 35.4945 34.918C35.4945 34.99 35.4222 34.99 35.4222 34.99C35.2778 34.99 35.2056 34.99 35.0611 34.918C34.6278 34.846 34.2667 34.774 33.8334 34.702C33.6167 34.63 33.3278 34.63 33.1111 34.558H33.0389C32.8945 34.558 32.8222 34.558 32.75 34.702C32.5334 35.278 32.3889 35.782 32.1722 36.358C32.1 36.502 32.0278 36.718 32.0278 36.862C32.0278 36.934 32.0278 36.934 31.9556 37.006C31.9556 37.078 31.8834 37.078 31.8111 37.078C31.7389 37.006 31.6667 37.006 31.5945 36.934C31.45 36.862 31.2334 36.718 31.0167 36.646C30.5111 36.358 30.0778 36.142 29.5722 35.926C29.5722 35.926 29.5 35.926 29.5 35.854C29.4278 35.926 29.4278 35.926 29.3556 35.998C29.0667 36.43 28.7778 36.934 28.4167 37.366C28.4167 37.438 28.4167 37.438 28.3445 37.51C28.2722 37.438 28.2722 37.366 28.2 37.366C28.1278 37.222 28.0556 37.078 27.9111 36.934C27.9111 36.862 27.9834 36.79 27.9834 36.79C28.2722 36.358 28.4889 35.998 28.7778 35.566C28.7778 35.566 28.7778 35.494 28.85 35.494H28.9222C28.9945 35.494 29.0667 35.566 29.0667 35.566C29.7167 35.926 30.4389 36.214 31.0889 36.574C31.1611 36.574 31.1611 36.646 31.2334 36.646C31.3056 36.574 31.3056 36.502 31.3056 36.43C31.5222 35.71 31.8111 34.99 32.0278 34.342C32.1 34.054 32.1 34.054 32.3889 34.126C32.9667 34.27 33.5445 34.342 34.1222 34.486C34.2667 34.486 34.4111 34.558 34.6278 34.558H34.7C34.7722 34.558 34.7722 34.558 34.7722 34.486V34.414C34.7722 34.126 34.7722 33.766 34.8445 33.478C34.9889 33.622 34.9889 33.766 35.1334 33.91C35.4222 33.982 35.4945 34.126 35.5667 34.27Z" fill="#ED9E03"/>
<path d="M37.1556 22.2459C37.1556 22.4619 37.1556 22.6779 37.1556 22.8219C37.1556 23.1099 37.1556 23.3979 37.0834 23.6859C37.0834 23.8299 37.0834 23.9019 37.0111 24.0459C36.9389 24.2619 36.9389 24.5499 36.8667 24.7659C36.7945 25.1979 36.65 25.6299 36.5056 25.9899C36.3611 26.3499 36.2167 26.7819 36 27.1419C35.7111 27.7179 35.4222 28.2939 34.9889 28.7979C34.8445 29.0139 34.6278 29.2299 34.4834 29.4459C34.1945 29.8779 33.8333 30.1659 33.4722 30.5259C33.1833 30.8139 32.8222 31.1019 32.5333 31.3179C32.2445 31.5339 32.0278 31.6779 31.7389 31.8939C31.5222 32.0379 31.2333 32.1819 30.9445 32.3259C30.4389 32.5419 30.0056 32.8299 29.5 32.9739C29.0667 33.1179 28.7056 33.2619 28.2722 33.3339C27.9833 33.4059 27.7667 33.4779 27.4778 33.4779C27.3333 33.4779 27.1889 33.4779 27.0445 33.5499C26.8278 33.6219 26.6111 33.5499 26.3945 33.6219C26.3222 33.6219 26.25 33.6219 26.25 33.6219C25.7445 33.6219 25.3111 33.6219 24.8056 33.6219C24.7333 33.6219 24.6611 33.6219 24.5889 33.6219C24.5889 33.6219 24.5167 33.6219 24.4445 33.6219C24.0833 33.6219 23.7945 33.5499 23.4333 33.4779C22.9278 33.4059 22.4945 33.2619 21.9889 33.1179C21.5556 32.9739 21.1222 32.8299 20.7611 32.6139C20.1834 32.3979 19.6778 32.1099 19.1722 31.7499C18.8111 31.4619 18.3778 31.2459 18.0167 30.9579C17.5833 30.5979 17.2222 30.3099 16.8611 29.8779C16.5722 29.5179 16.2833 29.2299 15.9945 28.8699C15.7778 28.5099 15.5611 28.2219 15.3445 27.8619C15.1278 27.5019 14.9833 27.1419 14.7667 26.7819C14.55 26.3499 14.4056 25.8459 14.2611 25.4139C14.1167 25.0539 14.0445 24.6939 13.9722 24.2619C13.9 24.0459 13.9 23.8299 13.8278 23.6139C13.8278 23.3979 13.7556 23.2539 13.7556 23.0379V22.9659C13.6833 22.6059 13.7556 22.2459 13.6833 21.8859C13.6833 21.7419 13.6833 21.5979 13.6833 21.3819C13.6833 21.2379 13.6833 21.0939 13.6833 21.0219V20.9499C13.6833 20.5899 13.7556 20.3019 13.8278 19.9419C13.9 19.2939 14.1167 18.6459 14.3333 17.9979C14.4778 17.7099 14.55 17.3499 14.6945 17.0619C14.7667 16.9179 14.8389 16.7739 14.9111 16.6299C15.2722 16.0539 15.5611 15.4059 15.9945 14.9019C16.2111 14.6139 16.4278 14.3259 16.6445 14.1099C16.7889 13.9659 16.9334 13.7499 17.15 13.6059C17.3667 13.3899 17.5833 13.2459 17.8 13.0299C18.2333 12.6699 18.6667 12.3819 19.1722 12.0939C19.3167 12.0219 19.4611 11.9499 19.6056 11.8059C19.8222 11.6619 20.0389 11.5899 20.2556 11.4459C20.8333 11.1579 21.4833 10.9419 22.1333 10.7259C22.5667 10.5819 22.9278 10.5099 23.3611 10.4379C23.5056 10.4379 23.65 10.4379 23.7945 10.3659C24.0111 10.2939 24.2278 10.3659 24.4445 10.2939C24.5167 10.2939 24.5167 10.2939 24.5889 10.2939C25.0222 10.2939 25.5278 10.2939 25.9611 10.2939C26.0333 10.2939 26.1056 10.2939 26.25 10.2939H26.3222C26.5389 10.2939 26.6834 10.3659 26.9 10.3659C27.1167 10.3659 27.2611 10.4379 27.4778 10.4379C27.7667 10.5099 28.0556 10.5819 28.3445 10.6539C28.7778 10.7979 29.2833 10.9419 29.7167 11.0859C30.0778 11.2299 30.3667 11.3739 30.7278 11.5179C31.1611 11.7339 31.6667 12.0219 32.1 12.3099C32.2445 12.4539 32.4611 12.5979 32.6056 12.6699C32.75 12.7419 32.8222 12.8139 32.8945 12.9579C33.2556 13.2459 33.6167 13.6059 33.9778 13.9659C34.4833 14.4699 34.9167 15.0459 35.2778 15.6219C35.5667 16.1259 35.8556 16.6299 36.0722 17.1339C36.2167 17.4939 36.3611 17.7819 36.5056 18.1419C36.65 18.6459 36.7945 19.1499 36.8667 19.6539C36.9389 19.9419 36.9389 20.1579 37.0111 20.4459C37.0834 20.7339 37.0834 21.0219 37.0834 21.3099C37.1556 21.9579 37.1556 22.1019 37.1556 22.2459ZM25.6 31.9659C25.8889 31.9659 26.25 31.9659 26.5389 31.8939C26.8278 31.8939 27.0445 31.8219 27.3333 31.8219C27.7667 31.7499 28.2 31.6059 28.6333 31.4619C28.85 31.3899 29.0667 31.3179 29.2833 31.2459C29.7167 31.1019 30.15 30.8139 30.5833 30.5979C30.8 30.4539 31.0889 30.3099 31.3056 30.0939C31.5945 29.8779 31.8833 29.5899 32.1722 29.3739C32.3167 29.2299 32.4611 29.0859 32.6056 28.9419C32.75 28.7979 32.8945 28.6539 33.0389 28.4379C33.1834 28.2219 33.3278 28.0059 33.4722 27.7899C33.6889 27.4299 33.9056 27.1419 34.1222 26.7819C34.3389 26.3499 34.5556 25.9899 34.7 25.5579C34.7722 25.3419 34.8445 25.1259 34.9167 24.9819C35.0611 24.5499 35.1334 24.1179 35.2056 23.6859C35.2056 23.3979 35.2778 23.1099 35.2778 22.8219C35.2778 22.7499 35.2778 22.6059 35.2778 22.5339C35.35 22.3899 35.35 22.1739 35.2778 22.0299C35.2778 21.9579 35.2778 21.9579 35.2778 21.8859C35.2778 21.6699 35.2778 21.4539 35.2056 21.1659C35.2056 20.9499 35.1333 20.7339 35.1333 20.5179C35.0611 20.0859 34.9167 19.5819 34.7722 19.1499C34.7 18.8619 34.5556 18.5739 34.4111 18.2859C34.3389 17.9979 34.1945 17.7819 34.05 17.5659C33.8333 17.2059 33.6167 16.7739 33.3278 16.4139C33.1111 16.0539 32.8222 15.7659 32.5333 15.4779C32.3889 15.3339 32.1722 15.1179 32.0278 14.9739C31.8111 14.8299 31.6667 14.6139 31.45 14.4699C31.0167 14.1099 30.5111 13.8219 30.0056 13.5339C29.5722 13.3179 29.1389 13.1019 28.7056 12.9579C28.1278 12.7419 27.55 12.5979 26.9 12.5259C26.7556 12.4539 26.6111 12.5259 26.4667 12.4539C26.3222 12.4539 26.1778 12.4539 26.0333 12.4539C25.8167 12.4539 25.6722 12.4539 25.4556 12.4539C25.1667 12.4539 24.8056 12.4539 24.5167 12.5259H24.4445C24.3 12.5259 24.0833 12.5259 23.9389 12.5979C23.7222 12.6699 23.4333 12.6699 23.2167 12.7419C22.7111 12.8859 22.1333 13.0299 21.7 13.2459C21.3389 13.3899 20.9056 13.6059 20.5445 13.8219C20.2556 13.9659 19.9667 14.1819 19.6778 14.3979C19.4611 14.6139 19.1722 14.7579 18.9556 15.0459C18.9556 15.0459 18.9556 15.0459 18.8833 15.1179C18.6667 15.2619 18.5222 15.4059 18.3778 15.6219C18.1611 15.8379 17.9445 16.0539 17.8 16.3419C17.5833 16.5579 17.4389 16.8459 17.2945 17.0619C17.0778 17.4219 16.8611 17.7819 16.7167 18.2139C16.5722 18.5019 16.5 18.7899 16.3556 19.0779C16.2111 19.4379 16.1389 19.7979 16.0667 20.0859C15.9945 20.5179 15.9222 20.8779 15.85 21.3099V21.3819C15.7778 21.5259 15.7778 21.6699 15.7778 21.8859C15.7778 22.2459 15.7778 22.5339 15.7778 22.8939C15.7778 22.9659 15.7778 23.0379 15.7778 23.0379C15.85 23.2539 15.85 23.3979 15.85 23.6139C15.9222 23.8299 15.9222 24.0459 15.9945 24.2619C16.1389 24.8379 16.2833 25.3419 16.5 25.8459C16.6445 26.2779 16.8611 26.6379 17.0778 26.9979C17.15 27.1419 17.2222 27.2859 17.2945 27.4299C17.5111 27.7899 17.7278 28.1499 18.0167 28.4379C18.1611 28.6539 18.3778 28.8699 18.5222 29.0139C18.6667 29.1579 18.8111 29.3019 18.9556 29.4459C19.1722 29.5899 19.3167 29.8059 19.5333 29.9499C20.0389 30.3099 20.5445 30.6699 21.1222 30.9579C21.2667 31.0299 21.4111 31.1019 21.4834 31.1019C21.9167 31.3179 22.4222 31.4619 22.9278 31.6059C23.2167 31.6779 23.5778 31.7499 23.8667 31.8219C24.0111 31.8219 24.1556 31.8939 24.3722 31.8939H24.4445C24.5889 31.9659 24.6611 31.8939 24.8056 31.8939C25.0945 31.9659 25.3111 31.9659 25.6 31.9659Z" fill="#FAC900"/>
<path d="M22.3501 35.9259C22.2056 35.9259 22.1334 35.9979 21.989 36.0699C21.9168 36.1419 21.8445 36.2139 21.7723 36.2139C21.2668 36.4299 20.8334 36.7179 20.3279 36.9339C20.2556 36.9339 20.2556 37.0059 20.1834 37.0059C20.1112 37.0059 20.1112 37.0059 20.039 36.9339C19.9668 36.7899 19.8945 36.5739 19.8945 36.4299C19.8945 36.3579 19.9668 36.3579 20.039 36.3579C20.689 36.0699 21.2668 35.7099 21.9168 35.4219H21.989H22.0612C22.1334 35.5659 22.2779 35.7099 22.3501 35.9259Z" fill="#ED9E03"/>
<path d="M18.8833 34.5579C18.5944 34.6299 18.3778 34.6299 18.0889 34.7019C17.6556 34.7739 17.2222 34.9179 16.7167 34.9899C16.7167 34.9899 16.6444 34.9899 16.5722 34.9899C16.5 34.9899 16.5 34.9899 16.5 34.9179C16.5 34.7739 16.5 34.7019 16.5 34.5579V34.4859C16.6444 34.4139 16.7889 34.4139 17.0056 34.3419C17.3667 34.2699 17.6556 34.1979 18.0167 34.1259C18.2333 34.0539 18.45 34.0539 18.6667 33.9819C18.7389 33.9819 18.7389 33.9819 18.7389 33.9819C18.8111 34.2699 18.8833 34.4139 18.8833 34.5579Z" fill="#ED9E03"/>
<path d="M25.6001 31.9659C25.3112 31.9659 25.0945 31.9659 24.8779 31.9659C24.7334 31.9659 24.6612 31.9659 24.5168 31.9659H24.4445C24.3001 31.9659 24.1557 31.9659 23.939 31.8939C23.6501 31.8219 23.289 31.7499 23.0001 31.6779C22.4945 31.5339 22.0612 31.3899 21.5557 31.1739C21.4112 31.1019 21.2668 31.0299 21.1945 31.0299C20.6168 30.7419 20.1112 30.4539 19.6057 30.0219C19.389 29.8779 19.1723 29.6619 19.0279 29.5179C18.8834 29.3739 18.739 29.2299 18.5945 29.0859C18.3779 28.8699 18.2334 28.6539 18.089 28.5099C17.8001 28.2219 17.5834 27.8619 17.3668 27.5019C17.2945 27.3579 17.2223 27.2139 17.1501 27.0699C16.9334 26.7099 16.7168 26.2779 16.5723 25.9179C16.3557 25.4139 16.2112 24.8379 16.0668 24.3339C15.9945 24.1179 15.9945 23.9019 15.9223 23.6859C15.9223 23.4699 15.9223 23.3259 15.8501 23.1099C15.8501 23.0379 15.8501 22.9659 15.8501 22.9659C15.8501 22.6059 15.8501 22.3179 15.8501 21.9579C15.8501 21.8139 15.8501 21.6699 15.9223 21.4539V21.3819C15.9223 20.9499 15.9945 20.5179 16.139 20.1579C16.2112 19.7979 16.2834 19.4379 16.4279 19.1499C16.5001 18.8619 16.6445 18.5739 16.789 18.2859C17.0057 17.9259 17.1501 17.4939 17.3668 17.1339C17.5112 16.9179 17.7279 16.6299 17.8723 16.4139C18.089 16.1979 18.2334 15.9819 18.4501 15.6939C18.5945 15.5499 18.739 15.3339 18.9557 15.1899C18.9557 15.1899 18.9557 15.1899 19.0279 15.1179C19.2445 14.9019 19.5334 14.6859 19.7501 14.4699C20.039 14.2539 20.3279 14.1099 20.6168 13.8939C20.9779 13.6779 21.339 13.4619 21.7723 13.3179C22.2779 13.1019 22.7834 12.9579 23.289 12.8139C23.5057 12.7419 23.7945 12.6699 24.0112 12.6699C24.1557 12.6699 24.3723 12.5979 24.5168 12.5979H24.589C24.8779 12.5259 25.239 12.5979 25.5279 12.5259C25.7445 12.5259 25.889 12.5259 26.1057 12.5259C26.2501 12.5259 26.3945 12.5259 26.539 12.5259C26.6834 12.5259 26.8279 12.5259 26.9723 12.5979C27.5501 12.6699 28.2001 12.8139 28.7779 13.0299C29.2112 13.1739 29.6445 13.3899 30.0779 13.6059C30.5834 13.8939 31.089 14.1819 31.5223 14.5419C31.739 14.6859 31.9557 14.9019 32.1001 15.0459C32.2445 15.1899 32.4612 15.3339 32.6057 15.5499C32.8945 15.8379 33.1834 16.1979 33.4001 16.4859C33.689 16.8459 33.9057 17.2059 34.1223 17.6379C34.2668 17.8539 34.339 18.1419 34.4834 18.3579C34.6279 18.6459 34.7001 18.9339 34.8445 19.2219C34.989 19.6539 35.1334 20.0859 35.2057 20.5899C35.2057 20.8059 35.2779 21.0219 35.2779 21.2379C35.3501 21.4539 35.2779 21.7419 35.3501 21.9579C35.3501 22.0299 35.3501 22.0299 35.3501 22.1019C35.4223 22.2459 35.4223 22.4619 35.3501 22.6059C35.3501 22.6779 35.3501 22.8219 35.3501 22.8939C35.3501 23.1819 35.2779 23.4699 35.2779 23.7579C35.2057 24.1899 35.1334 24.6219 34.989 25.0539C34.9168 25.2699 34.8445 25.4859 34.7723 25.6299C34.6279 26.0619 34.4112 26.4939 34.1945 26.8539C33.9779 27.2139 33.8334 27.5739 33.5445 27.8619C33.4001 28.0779 33.2557 28.2939 33.1112 28.5099C32.9668 28.6539 32.8223 28.7979 32.6779 29.0139C32.5334 29.1579 32.389 29.3019 32.2445 29.4459C31.9557 29.7339 31.6668 29.9499 31.3779 30.1659C31.1612 30.3099 30.8723 30.5259 30.6557 30.6699C30.2223 30.8859 29.789 31.1739 29.3557 31.3179C29.139 31.3899 28.9223 31.4619 28.7057 31.5339C28.2723 31.6779 27.839 31.8219 27.4057 31.8939C27.189 31.9659 26.9001 32.0379 26.6112 31.9659C26.2501 31.9659 25.889 31.8939 25.6001 31.9659ZM20.4723 29.0139C20.5445 29.0139 20.6168 28.9419 20.689 28.9419C21.1945 28.6539 21.7001 28.4379 22.2057 28.1499C22.4945 28.0059 22.7834 27.8619 23.0723 27.7179C23.5779 27.4299 24.0834 27.2139 24.589 26.9259C24.6612 26.9259 24.7334 26.8539 24.7334 26.8539C24.9501 26.7099 25.239 26.6379 25.4557 26.4939C25.5279 26.4939 25.5279 26.4939 25.6001 26.4939C25.6723 26.5659 25.7445 26.5659 25.8168 26.6379C26.3945 26.9259 26.9723 27.2139 27.5501 27.5019C27.839 27.6459 28.2001 27.7899 28.489 28.0059C28.9223 28.2219 29.3557 28.4379 29.789 28.7259C29.8612 28.7979 29.9334 28.7979 30.0779 28.8699C30.2223 28.9419 30.3668 29.0139 30.5112 29.0859H30.5834V29.0139C30.5112 28.7259 30.439 28.3659 30.439 28.0779C30.3668 27.7179 30.2945 27.2859 30.2223 26.9259C30.1501 26.6379 30.0779 26.2779 30.0779 25.9899C30.0057 25.7019 30.0057 25.4139 29.9334 25.1259C29.8612 24.9099 29.8612 24.6939 29.789 24.4779C29.7168 24.2619 29.7168 24.0459 29.6445 23.8299C29.5723 23.6139 29.6445 23.5419 29.789 23.3979C30.2945 22.8939 30.8001 22.3899 31.3779 21.8859C31.9557 21.3099 32.5334 20.7339 33.1834 20.1579C33.3279 20.0139 33.4723 19.8699 33.5445 19.7979C33.6168 19.7259 33.6168 19.7259 33.6168 19.6539C33.6168 19.6539 33.689 19.5819 33.6168 19.5819H33.5445C33.4001 19.5819 33.1834 19.5099 33.039 19.5099C32.8945 19.5099 32.7501 19.4379 32.6057 19.4379C32.3168 19.4379 32.1001 19.3659 31.8112 19.3659C31.5223 19.2939 31.2334 19.2939 30.9445 19.2219C30.8001 19.2219 30.7279 19.2219 30.5834 19.1499C30.439 19.1499 30.2945 19.0779 30.1501 19.0779C30.0057 19.0779 29.8612 19.0779 29.7168 19.0059C29.4279 18.9339 29.2112 18.9339 28.9223 18.8619C28.7057 18.8619 28.4168 18.7899 28.2001 18.7899C28.0557 18.7899 27.9834 18.7179 27.9112 18.5739C27.7668 18.2859 27.6945 18.0699 27.5501 17.7819C26.9001 16.4859 26.2501 15.1899 25.6001 13.8939C25.6001 13.8219 25.5279 13.8219 25.5279 13.7499C25.5279 13.6779 25.4557 13.6779 25.4557 13.7499C25.4557 13.7499 25.4557 13.8219 25.3834 13.8219C25.0223 14.6139 24.589 15.4059 24.1557 16.2699C23.7945 17.0619 23.3612 17.8539 23.0001 18.5739C22.9279 18.7179 22.8557 18.7179 22.7112 18.7899C22.5668 18.7899 22.4223 18.7899 22.2779 18.8619C21.989 18.9339 21.7723 18.9339 21.4834 19.0059C21.339 18.9339 21.0501 18.9339 20.8334 18.9339C20.689 18.9339 20.5445 18.9339 20.4723 19.0059C20.2557 19.0779 19.9668 19.0779 19.7501 19.1499C19.6057 19.1499 19.4612 19.1499 19.3168 19.2219C19.1723 19.2219 19.0279 19.2939 18.8834 19.2939C18.5945 19.2939 18.3779 19.3659 18.089 19.3659C17.8723 19.3659 17.7279 19.4379 17.5112 19.4379C17.5112 19.4379 17.5112 19.4379 17.439 19.4379C17.439 19.4379 17.439 19.4379 17.439 19.5099L17.5112 19.5819C17.5834 19.6539 17.7279 19.7259 17.8001 19.8699C18.5945 20.6619 19.389 21.4539 20.1834 22.1739C20.4723 22.4619 20.7612 22.7499 21.0501 22.9659C21.1223 23.0379 21.1223 23.0379 21.1945 23.1099C21.2668 23.1819 21.339 23.2539 21.4834 23.3259C21.5557 23.3979 21.5557 23.3979 21.4834 23.4699C21.4112 23.6859 21.4112 23.9019 21.339 24.1899C21.2668 24.4059 21.2668 24.6219 21.1945 24.8379C21.1945 25.0539 21.1223 25.1979 21.1223 25.4139C21.1223 25.6299 21.0501 25.8459 21.0501 26.0619C20.9779 26.3499 20.9057 26.6379 20.9057 26.9259C20.8334 27.2139 20.8334 27.5739 20.7612 27.8619C20.6168 28.2219 20.5445 28.5819 20.4723 29.0139Z" fill="#FFED33"/>
<path d="M20.4723 29.014C20.5445 28.654 20.6167 28.222 20.6889 27.862C20.7611 27.574 20.7611 27.214 20.8334 26.926C20.9056 26.638 20.9778 26.35 20.9778 26.062C21.05 25.846 21.05 25.63 21.05 25.414C21.05 25.198 21.1223 25.054 21.1223 24.838C21.1945 24.622 21.1945 24.406 21.2667 24.19C21.3389 23.974 21.3389 23.758 21.4111 23.47C21.4111 23.398 21.4111 23.398 21.4111 23.326C21.3389 23.254 21.2667 23.182 21.1223 23.11C21.05 23.11 21.05 23.038 20.9778 22.966C20.6889 22.678 20.4 22.39 20.1111 22.174C19.3167 21.382 18.5223 20.662 17.7278 19.87C17.6556 19.798 17.5111 19.726 17.4389 19.582L17.3667 19.51V19.438C17.3667 19.438 17.3667 19.438 17.4389 19.438C17.6556 19.438 17.8 19.366 18.0167 19.366C18.3056 19.294 18.5223 19.294 18.8111 19.294C18.9556 19.294 19.1 19.222 19.2445 19.222C19.3889 19.222 19.5334 19.222 19.6778 19.15C19.8945 19.15 20.1834 19.078 20.4 19.006C20.5445 19.006 20.6889 19.006 20.7611 18.934C20.9778 18.862 21.2667 18.862 21.5556 18.862C21.8445 18.79 22.0611 18.79 22.35 18.718C22.4945 18.718 22.6389 18.646 22.7834 18.646C22.9278 18.646 23 18.574 23.0723 18.43C23.4334 17.638 23.8667 16.918 24.2278 16.126C24.5889 15.334 25.0223 14.542 25.4556 13.678C25.4556 13.678 25.4556 13.606 25.5278 13.606C25.5278 13.534 25.6 13.534 25.6 13.606C25.6 13.678 25.6723 13.678 25.6723 13.75C26.3223 15.046 26.9723 16.342 27.6223 17.638C27.7667 17.926 27.9111 18.142 27.9834 18.43C28.0556 18.574 28.1278 18.646 28.2723 18.646C28.4889 18.646 28.7778 18.718 28.9945 18.718C29.2834 18.79 29.5 18.79 29.7889 18.862C29.9334 18.862 30.0778 18.862 30.2223 18.934C30.3667 18.934 30.5111 19.006 30.6556 19.006C30.8 19.006 30.8723 19.006 31.0167 19.078C31.3056 19.15 31.5945 19.15 31.8834 19.222C32.1723 19.294 32.3889 19.294 32.6778 19.294C32.8223 19.294 32.9667 19.366 33.1111 19.366C33.2556 19.366 33.4723 19.438 33.6167 19.438H33.6889V19.51C33.6889 19.582 33.6167 19.582 33.6167 19.654C33.4723 19.798 33.3278 19.942 33.2556 20.014C32.6056 20.59 32.1 21.166 31.45 21.742C30.9445 22.246 30.4389 22.75 29.8611 23.254C29.7167 23.398 29.7167 23.542 29.7167 23.686C29.7889 23.902 29.7889 24.118 29.8611 24.334C29.9334 24.55 29.9334 24.766 30.0056 24.982C30.0778 25.27 30.0778 25.558 30.15 25.846C30.2223 26.134 30.2945 26.494 30.2945 26.782C30.3667 27.142 30.4389 27.574 30.5111 27.934C30.5834 28.222 30.6556 28.582 30.6556 28.87V28.942H30.5834C30.4389 28.87 30.2945 28.798 30.15 28.726C30.0778 28.654 30.0056 28.654 29.8611 28.582C29.4278 28.366 28.9945 28.15 28.5611 27.862C28.2723 27.718 27.9111 27.574 27.6223 27.358C27.0445 27.07 26.4667 26.782 25.8889 26.494C25.8167 26.422 25.7445 26.422 25.6723 26.35C25.6 26.35 25.6 26.35 25.5278 26.35C25.3111 26.494 25.0223 26.566 24.8056 26.71C24.7334 26.71 24.6611 26.782 24.6611 26.782C24.1556 27.07 23.65 27.286 23.1445 27.574C22.8556 27.718 22.5667 27.862 22.2778 28.006C21.7723 28.294 21.2667 28.51 20.7611 28.798C20.6167 28.942 20.5445 29.014 20.4723 29.014Z" fill="#FAC900"/>
</svg>
